<svg width="120" height="120" viewBox="0 0 120 120" fill="none" xmlns="http://www.w3.org/2000/svg">
<rect x="2.5" y="2.5" width="115" height="115" rx="12.5" fill="#D9D9D9" stroke="#282829" stroke-width="5"/>
<path d="M33.184 61.64L14.112 12.104V57.096L20.256 59.656V61H6.56V59.656L12.576 57.096V12.104L6.688 11.208V9.8H20.832L36.896 50.888L53.28 9.8H66.208V11.208L60.32 12.104V58.696L66.208 59.656V61H47.392V59.656L53.28 58.696V14.024L34.336 61.64H33.184Z" fill="#282829"/>
<path d="M62.848 88.28C58.88 88.28 54.976 87.1493 51.136 84.888L45.696 87.64H44.288V71.192H45.696L51.2 83.096C54.7413 85.6133 58.7947 86.872 63.36 86.872C67.1147 86.872 70.208 85.8907 72.64 83.928C75.1147 81.9227 76.352 79.128 76.352 75.544C76.352 72.9413 75.5627 70.8933 73.984 69.4C72.4053 67.864 69.8453 66.648 66.304 65.752L55.68 63C51.968 62.0187 49.1733 60.3547 47.296 58.008C45.4187 55.6187 44.48 52.8027 44.48 49.56C44.48 46.616 45.056 44.0133 46.208 41.752C47.4027 39.448 49.1307 37.6773 51.392 36.44C53.6533 35.16 56.3413 34.52 59.456 34.52C63.3387 34.52 66.816 35.1813 69.888 36.504L74.56 34.52H75.968V47.576H74.56L69.952 38.232C66.752 36.696 63.2747 35.928 59.52 35.928C55.808 35.928 52.8853 36.888 50.752 38.808C48.6187 40.6853 47.552 43.1813 47.552 46.296C47.552 48.6 48.2987 50.4133 49.792 51.736C51.328 53.0587 53.568 54.104 56.512 54.872L67.968 57.88C71.68 58.8187 74.432 60.44 76.224 62.744C78.0587 65.0053 78.976 68.4613 78.976 73.112C78.976 77.848 77.504 81.56 74.56 84.248C71.6587 86.936 67.7547 88.28 62.848 88.28Z" fill="#282829"/>
<path d="M81.992 111V109.656L87.88 108.696V61.4H77.32L72.456 74.072H70.6V59.8H112.264V74.072H110.344L105.544 61.4H94.92V108.696L100.808 109.656V111H81.992Z" fill="#282829"/>
</svg>
