<?xml version="1.0" encoding="utf-8"?><svg viewBox="0 0 58 47" xmlns="http://www.w3.org/2000/svg" xmlns:xlink="http://www.w3.org/1999/xlink"><style>:root>svg{display:none}:root>svg:target{display:block}</style><svg fill="none" viewBox="0 0 58 47" id="advantages" xmlns="http://www.w3.org/2000/svg"><path fill-rule="evenodd" clip-rule="evenodd" d="M23.203 3.844a1.224 1.224 0 0 1-.75.197v.003c-3.044 0-5.562 2.2-5.584 3.51 0 .646.504.947 1.185 1.073 2.323.402 3.607 1.323 5.388 4.156 1.34 2.086 3.016 4.723 4.05 6.349.536.844.9 1.415.952 1.495.225.346.35.383.515.383.166 0 .299-.034.534-.383.051-.083.448-.704 1.028-1.612 1.044-1.634 2.682-4.198 3.974-6.24 1.829-2.844 3.07-3.75 5.388-4.151.688-.127 1.185-.427 1.185-1.074 0-1.307-2.503-3.51-5.565-3.51a1.218 1.218 0 0 1-1.233-.809A6.018 6.018 0 0 0 32.07.87a5.939 5.939 0 0 0-6.184 0 5.99 5.99 0 0 0-2.2 2.362 1.219 1.219 0 0 1-.483.613Zm-1.95 11.346c-2.51-3.948-5.624-5.222-8.561-5.222h-.004c-3.908 0-5.322 2.072-5.322 2.916 0 .341.18.646.773.646 2.786 0 4.538 1.667 5.896 3.9a3094.482 3094.482 0 0 0 8.2 13.303c.04.081.103.156.18.204.082.052.17.078.262.078a.534.534 0 0 0 .464-.275c.095-.156 3.654-5.805 3.739-5.924a.679.679 0 0 0 .118-.364.617.617 0 0 0-.114-.349c-.067-.122-4.354-6.911-5.631-8.913Zm-.884 31.156a4.91 4.91 0 0 0 2.455.654 4.865 4.865 0 0 0 4.27-2.444c.986-1.586 15.46-24.894 16.815-27.123 1.355-2.228 3.103-3.9 5.893-3.9.592 0 .776-.304.776-.646 0-.843-1.431-2.915-5.34-2.915-2.948 0-6.05 1.274-8.56 5.222-1.289 1.998-11.274 17.882-13.386 21.284-.093.16-.273.412-.527.412s-.383-.156-.544-.412c-4.285-6.767-10.026-15.896-10.026-15.896-2.348-3.78-5.064-4.701-7.398-4.701-3.095 0-4.799 1.623-4.799 2.696 0 .382.166.795.902.795 1.862 0 2.561.977 4.615 4.32 1.557 2.461 13.05 20.853 13.05 20.853a4.929 4.929 0 0 0 1.804 1.801Zm32.108-22.655c2.058-3.342 2.753-4.32 4.616-4.32h.003c.73 0 .902-.412.902-.794 0-1.073-1.704-2.696-4.8-2.696-2.325 0-5.023.92-7.397 4.701 0 0-14.549 23.086-14.644 23.25-.144.156-.236.349-.269.557.033.208.125.397.269.546a5.006 5.006 0 0 0 1.777 1.522c.703.357 1.48.543 2.267.543a4.87 4.87 0 0 0 2.452-.654 4.929 4.929 0 0 0 1.803-1.801S50.954 26.153 52.477 23.69Z" fill="#D5C9BE"/></svg><svg fill="none" viewBox="0 0 39 37" id="done" xmlns="http://www.w3.org/2000/svg"><g clip-path="url(#ba)"><path d="M36 18.5C36 28.165 28.165 36 18.5 36S1 28.165 1 18.5 8.835 1 18.5 1 36 8.835 36 18.5Z" stroke="#EFCFAD" stroke-width="2"/><path d="M36.093 12.772a18.436 18.436 0 0 0-2.18-4.506L17.719 25.132l.032 1.877.765-.004 17.577-14.233Z" fill="#A4907D"/><path d="M39 6c-.237-1.228-2.5-2-2.5-2-.45-.445-3.05 2.056-3.5 2.5L18.073 22 11.5 14.5c-.451-.445-1.55-.945-2-.5l-2.139 1.43a1.13 1.13 0 0 0 0 1.61l9.76 9.643c.26.258.613.361.952.321.339.04.692-.064.952-.32L37.03 8.893C37.48 8.45 39.26 7.343 39 6Z" fill="#fff"/><path d="M19.024 26.682 37.03 8.893C38.5 8 39.45 6.445 39 6c-.45-.445-2.51.75-2.51.75L17.97 24.967l-10.2-9.943-.409.404a1.13 1.13 0 0 0 0 1.611l9.76 9.643c.26.257.613.36.952.32.339.04.691-.063.951-.32Z" fill="#EFCFAD"/></g><defs><clipPath id="ba"><path fill="#fff" d="M0 0h39v37H0z"/></clipPath></defs></svg><svg fill="none" viewBox="0 0 32 32" id="facebook" xmlns="http://www.w3.org/2000/svg"><g clip-path="url(#ca)"><path d="M9.332 13.333v5.334h4V28h5.333v-9.333h4L24 13.333h-5.334v-2.666A1.333 1.333 0 0 1 20 9.333h4V4h-4a6.667 6.667 0 0 0-6.667 6.667v2.666h-4Z" stroke="#D5C9BE" stroke-width="2" stroke-linecap="round" stroke-linejoin="round"/></g><defs><clipPath id="ca"><path fill="#fff" d="M0 0h32v32H0z"/></clipPath></defs></svg><svg fill="none" viewBox="0 0 32 32" id="instagram" xmlns="http://www.w3.org/2000/svg"><g clip-path="url(#a)" stroke="#D5C9BE" stroke-width="2" stroke-linecap="round" stroke-linejoin="round"><path d="M21.332 5.332H10.665a5.333 5.333 0 0 0-5.333 5.333v10.667a5.333 5.333 0 0 0 5.333 5.333h10.667a5.333 5.333 0 0 0 5.333-5.333V10.665a5.333 5.333 0 0 0-5.333-5.333Z"/><path d="M16 20a4 4 0 1 0 0-8 4 4 0 0 0 0 8ZM22 10v.001"/></g></svg><svg fill="none" viewBox="0 0 32 32" id="linkedin" xmlns="http://www.w3.org/2000/svg"><g clip-path="url(#ea)" stroke="#D5C9BE" stroke-width="2" stroke-linecap="round" stroke-linejoin="round"><path d="M23.999 5.332h-16a2.667 2.667 0 0 0-2.667 2.667v16a2.667 2.667 0 0 0 2.667 2.666h16A2.667 2.667 0 0 0 26.665 24v-16A2.667 2.667 0 0 0 24 5.332ZM10.668 14.668v6.667M10.668 10.668v.013M16 21.335v-6.667"/><path d="M21.333 21.335v-4a2.667 2.667 0 1 0-5.333 0"/></g><defs><clipPath id="ea"><path fill="#fff" d="M0 0h32v32H0z"/></clipPath></defs></svg><svg fill="none" viewBox="0 0 32 32" id="melody" xmlns="http://www.w3.org/2000/svg"><g clip-path="url(#fa)"><path d="M12.001 15.999a5.334 5.334 0 1 0 5.334 5.333v-16A6.667 6.667 0 0 0 24 11.999" stroke="#D5C9BE" stroke-width="2" stroke-linecap="round" stroke-linejoin="round"/></g><defs><clipPath id="fa"><path fill="#fff" d="M0 0h32v32H0z"/></clipPath></defs></svg><svg fill="none" viewBox="0 0 32 32" id="tg" xmlns="http://www.w3.org/2000/svg"><g clip-path="url(#ga)"><path d="m20 13.332-5.333 5.333 8 8L28 5.332 4 14.665l5.333 2.667 2.667 8 4-5.333" stroke="#D5C9BE" stroke-width="2" stroke-linecap="round" stroke-linejoin="round"/></g><defs><clipPath id="ga"><path fill="#fff" d="M0 0h32v32H0z"/></clipPath></defs></svg><svg fill="none" viewBox="0 0 32 32" id="youtube" xmlns="http://www.w3.org/2000/svg"><g clip-path="url(#ha)" stroke="#D5C9BE" stroke-width="2" stroke-linecap="round" stroke-linejoin="round"><path d="M22.667 6.668H9.333A5.333 5.333 0 0 0 4 12.001v8a5.333 5.333 0 0 0 5.333 5.334h13.334A5.333 5.333 0 0 0 28 20v-8a5.333 5.333 0 0 0-5.333-5.333Z"/><path d="m13.332 12 6.667 4-6.667 4v-8Z"/></g><defs><clipPath id="ha"><path fill="#fff" d="M0 0h32v32H0z"/></clipPath></defs></svg></svg>